<mxfile host="65bd71144e">
    <diagram id="cVbjBO6RR021YhtIs8Rc" name="Page-1">
        <mxGraphModel dx="1151" dy="782" grid="1" gridSize="10" guides="1" tooltips="1" connect="1" arrows="1" fold="1" page="1" pageScale="1" pageWidth="827" pageHeight="1169" math="0" shadow="0">
            <root>
                <mxCell id="0"/>
                <mxCell id="1" parent="0"/>
                <mxCell id="nmSWPkxK9Ug6W2nz6Yx_-1" value="&lt;font style=&quot;font-size: 48px;&quot;&gt;VSEBNIKI&lt;/font&gt;" style="rounded=0;whiteSpace=wrap;html=1;" parent="1" vertex="1">
                    <mxGeometry x="70" y="100" width="620" height="80" as="geometry"/>
                </mxCell>
                <mxCell id="nmSWPkxK9Ug6W2nz6Yx_-2" value="&lt;font style=&quot;font-size: 48px;&quot;&gt;KUBERNETES&lt;/font&gt;" style="rounded=0;whiteSpace=wrap;html=1;" parent="1" vertex="1">
                    <mxGeometry x="60" y="180" width="640" height="80" as="geometry"/>
                </mxCell>
                <mxCell id="nmSWPkxK9Ug6W2nz6Yx_-4" value="&lt;font style=&quot;font-size: 48px;&quot;&gt;NAVIDEZNE NAPRAVE&lt;/font&gt;" style="rounded=0;whiteSpace=wrap;html=1;" parent="1" vertex="1">
                    <mxGeometry x="50" y="260" width="660" height="90" as="geometry"/>
                </mxCell>
                <mxCell id="nmSWPkxK9Ug6W2nz6Yx_-7" value="&lt;font style=&quot;font-size: 48px;&quot;&gt;STROJNA OPREMA&lt;/font&gt;" style="rounded=0;whiteSpace=wrap;html=1;" parent="1" vertex="1">
                    <mxGeometry x="40" y="350" width="680" height="90" as="geometry"/>
                </mxCell>
            </root>
        </mxGraphModel>
    </diagram>
</mxfile>